<mxfile host="app.diagrams.net" modified="2022-12-02T18:12:16.721Z" agent="5.0 (Macintosh)" etag="gMdPB0GvWudJ0pnn1PZ9" version="20.5.3" type="github">
  <diagram id="yeDyYtEWa_LAC-ZGY85x" name="Page-1">
    <mxGraphModel dx="1429" dy="753" grid="1" gridSize="10" guides="1" tooltips="1" connect="1" arrows="1" fold="1" page="1" pageScale="1" pageWidth="827" pageHeight="1169" math="0" shadow="0">
      <root>
        <mxCell id="0" />
        <mxCell id="1" parent="0" />
        <mxCell id="GqVqSoaUUdwbQ-ARkxw8-1" value="" style="ellipse;whiteSpace=wrap;html=1;aspect=fixed;fillColor=#000000;" vertex="1" parent="1">
          <mxGeometry x="360" width="40" height="40" as="geometry" />
        </mxCell>
        <mxCell id="GqVqSoaUUdwbQ-ARkxw8-4" value="" style="group" vertex="1" connectable="0" parent="1">
          <mxGeometry x="170" y="142.5" width="60" height="57.5" as="geometry" />
        </mxCell>
        <mxCell id="GqVqSoaUUdwbQ-ARkxw8-2" value="" style="ellipse;whiteSpace=wrap;html=1;aspect=fixed;fillColor=#000000;" vertex="1" parent="GqVqSoaUUdwbQ-ARkxw8-4">
          <mxGeometry x="10" y="9.583333333333332" width="38.33333333333333" height="38.33333333333333" as="geometry" />
        </mxCell>
        <mxCell id="GqVqSoaUUdwbQ-ARkxw8-3" value="" style="ellipse;whiteSpace=wrap;html=1;aspect=fixed;fillColor=none;strokeWidth=3;" vertex="1" parent="GqVqSoaUUdwbQ-ARkxw8-4">
          <mxGeometry width="57.49999999999999" height="57.49999999999999" as="geometry" />
        </mxCell>
        <mxCell id="GqVqSoaUUdwbQ-ARkxw8-5" value="" style="endArrow=classic;html=1;rounded=0;" edge="1" parent="1">
          <mxGeometry width="50" height="50" relative="1" as="geometry">
            <mxPoint x="379.5" y="40" as="sourcePoint" />
            <mxPoint x="379.5" y="80" as="targetPoint" />
          </mxGeometry>
        </mxCell>
        <mxCell id="GqVqSoaUUdwbQ-ARkxw8-6" value="" style="rounded=1;whiteSpace=wrap;html=1;strokeWidth=3;fillColor=none;" vertex="1" parent="1">
          <mxGeometry x="320" y="80" width="120" height="40" as="geometry" />
        </mxCell>
        <mxCell id="GqVqSoaUUdwbQ-ARkxw8-7" value="Home Page" style="text;html=1;strokeColor=none;fillColor=none;align=center;verticalAlign=middle;whiteSpace=wrap;rounded=0;strokeWidth=3;" vertex="1" parent="1">
          <mxGeometry x="335" y="85" width="90" height="30" as="geometry" />
        </mxCell>
        <mxCell id="GqVqSoaUUdwbQ-ARkxw8-12" value="" style="endArrow=classic;html=1;rounded=0;" edge="1" parent="1">
          <mxGeometry width="50" height="50" relative="1" as="geometry">
            <mxPoint x="379.5" y="120" as="sourcePoint" />
            <mxPoint x="380" y="150" as="targetPoint" />
          </mxGeometry>
        </mxCell>
        <mxCell id="GqVqSoaUUdwbQ-ARkxw8-23" value="" style="group" vertex="1" connectable="0" parent="1">
          <mxGeometry x="90" y="230" width="580" height="150" as="geometry" />
        </mxCell>
        <mxCell id="GqVqSoaUUdwbQ-ARkxw8-8" value="" style="rhombus;whiteSpace=wrap;html=1;strokeWidth=3;fillColor=none;" vertex="1" parent="GqVqSoaUUdwbQ-ARkxw8-23">
          <mxGeometry x="260" width="60" height="50" as="geometry" />
        </mxCell>
        <mxCell id="GqVqSoaUUdwbQ-ARkxw8-9" value="" style="endArrow=classic;html=1;rounded=0;" edge="1" parent="GqVqSoaUUdwbQ-ARkxw8-23">
          <mxGeometry width="50" height="50" relative="1" as="geometry">
            <mxPoint x="260" y="24.5" as="sourcePoint" />
            <mxPoint x="100" y="25" as="targetPoint" />
          </mxGeometry>
        </mxCell>
        <mxCell id="GqVqSoaUUdwbQ-ARkxw8-10" value="" style="endArrow=classic;html=1;rounded=0;" edge="1" parent="GqVqSoaUUdwbQ-ARkxw8-23">
          <mxGeometry width="50" height="50" relative="1" as="geometry">
            <mxPoint x="320" y="24.5" as="sourcePoint" />
            <mxPoint x="480" y="24.5" as="targetPoint" />
          </mxGeometry>
        </mxCell>
        <mxCell id="GqVqSoaUUdwbQ-ARkxw8-13" value="" style="rounded=1;whiteSpace=wrap;html=1;strokeWidth=3;fillColor=none;" vertex="1" parent="GqVqSoaUUdwbQ-ARkxw8-23">
          <mxGeometry y="10" width="100" height="40" as="geometry" />
        </mxCell>
        <mxCell id="GqVqSoaUUdwbQ-ARkxw8-14" value="Edit Booking" style="text;html=1;strokeColor=none;fillColor=none;align=center;verticalAlign=middle;whiteSpace=wrap;rounded=0;strokeWidth=3;" vertex="1" parent="GqVqSoaUUdwbQ-ARkxw8-23">
          <mxGeometry x="20" y="15" width="60" height="30" as="geometry" />
        </mxCell>
        <mxCell id="GqVqSoaUUdwbQ-ARkxw8-16" value="" style="rounded=1;whiteSpace=wrap;html=1;strokeWidth=3;fillColor=none;" vertex="1" parent="GqVqSoaUUdwbQ-ARkxw8-23">
          <mxGeometry x="480" y="10" width="100" height="40" as="geometry" />
        </mxCell>
        <mxCell id="GqVqSoaUUdwbQ-ARkxw8-17" value="" style="rounded=1;whiteSpace=wrap;html=1;strokeWidth=3;fillColor=none;" vertex="1" parent="GqVqSoaUUdwbQ-ARkxw8-23">
          <mxGeometry x="240" y="110" width="100" height="40" as="geometry" />
        </mxCell>
        <mxCell id="GqVqSoaUUdwbQ-ARkxw8-18" value="Create Booking" style="text;html=1;strokeColor=none;fillColor=none;align=center;verticalAlign=middle;whiteSpace=wrap;rounded=0;strokeWidth=3;" vertex="1" parent="GqVqSoaUUdwbQ-ARkxw8-23">
          <mxGeometry x="260" y="115" width="60" height="30" as="geometry" />
        </mxCell>
        <mxCell id="GqVqSoaUUdwbQ-ARkxw8-15" value="Cancel Booking" style="text;html=1;strokeColor=none;fillColor=none;align=center;verticalAlign=middle;whiteSpace=wrap;rounded=0;strokeWidth=3;" vertex="1" parent="GqVqSoaUUdwbQ-ARkxw8-23">
          <mxGeometry x="505" y="20" width="50" height="20" as="geometry" />
        </mxCell>
        <mxCell id="GqVqSoaUUdwbQ-ARkxw8-11" value="" style="endArrow=classic;html=1;rounded=0;" edge="1" parent="GqVqSoaUUdwbQ-ARkxw8-23">
          <mxGeometry width="50" height="50" relative="1" as="geometry">
            <mxPoint x="289.58" y="50" as="sourcePoint" />
            <mxPoint x="289.58" y="110" as="targetPoint" />
          </mxGeometry>
        </mxCell>
        <mxCell id="GqVqSoaUUdwbQ-ARkxw8-24" value="" style="rounded=1;whiteSpace=wrap;html=1;strokeWidth=3;fillColor=none;" vertex="1" parent="1">
          <mxGeometry x="318.75" y="151.25" width="122.5" height="38.75" as="geometry" />
        </mxCell>
        <mxCell id="GqVqSoaUUdwbQ-ARkxw8-25" value="View All Bookings" style="text;html=1;strokeColor=none;fillColor=none;align=center;verticalAlign=middle;whiteSpace=wrap;rounded=0;strokeWidth=3;" vertex="1" parent="1">
          <mxGeometry x="330" y="156.25" width="100" height="30" as="geometry" />
        </mxCell>
        <mxCell id="GqVqSoaUUdwbQ-ARkxw8-26" value="" style="endArrow=classic;html=1;rounded=0;" edge="1" parent="1">
          <mxGeometry width="50" height="50" relative="1" as="geometry">
            <mxPoint x="379.58" y="190" as="sourcePoint" />
            <mxPoint x="380" y="230" as="targetPoint" />
          </mxGeometry>
        </mxCell>
      </root>
    </mxGraphModel>
  </diagram>
</mxfile>
